<svg xmlns="http://www.w3.org/2000/svg"  viewBox="0 0 512 512" width="256px" height="256px"><defs><style>.cls-1{fill:#874829;}.cls-2{fill:#703b24;}.cls-3{fill:#f7f5fb;}.cls-4{fill:#cfdce5;}.cls-5{fill:#e4e3e8;}</style></defs><title>11 To Do List</title><g id="_11_To_Do_List" data-name="11 To Do List"><path class="cls-1" d="M425,110.61v358.2A32.19,32.19,0,0,1,392.81,501H119.19A32.19,32.19,0,0,1,87,468.81V110.61a32.2,32.2,0,0,1,32.19-32.2h77a24.15,24.15,0,1,0,0,48.3h119.7a24.15,24.15,0,1,0,0-48.3h77A32.2,32.2,0,0,1,425,110.61Z"/><path class="cls-2" d="M317.71,501H119.19A32.19,32.19,0,0,1,87,468.8V200.88C121.85,328.51,206,435.79,317.71,501Z"/><path class="cls-3" d="M394.82,140.79V438.62a32.2,32.2,0,0,1-32.19,32.2H149.37a32.2,32.2,0,0,1-32.19-32.2V140.79a32.19,32.19,0,0,1,32.19-32.19h23.39a24.15,24.15,0,0,0,23.39,18.11h119.7a24.16,24.16,0,0,0,23.39-18.11h23.39A32.19,32.19,0,0,1,394.82,140.79Z"/><path class="cls-4" d="M315.85,78.41h-15.5a48.29,48.29,0,1,0-88.7,0h-15.5A24.15,24.15,0,0,0,172,102.56h0a24.15,24.15,0,0,0,24.15,24.15h119.7A24.14,24.14,0,0,0,340,102.56h0A24.14,24.14,0,0,0,315.85,78.41Z"/><path class="cls-5" d="M272,470.82H149.37a32.2,32.2,0,0,1-32.19-32.2V282.45A501.94,501.94,0,0,0,272,470.82Z"/><path d="M392.81,507H119.19A38.23,38.23,0,0,1,81,468.81V297.15a6,6,0,0,1,12,0V468.81A26.22,26.22,0,0,0,119.19,495H392.81A26.22,26.22,0,0,0,419,468.81V110.61a26.23,26.23,0,0,0-26.19-26.2H339.94a30.17,30.17,0,0,1-24.09,48.3H196.15a30.14,30.14,0,0,1-24.06-48.3h-52.9A26.23,26.23,0,0,0,93,110.61V250.35a6,6,0,1,1-12,0V110.61a38.24,38.24,0,0,1,38.19-38.2h77a6,6,0,0,1,0,12,18.15,18.15,0,1,0,0,36.3h119.7a18.15,18.15,0,1,0,0-36.3,6,6,0,0,1,0-12h77A38.24,38.24,0,0,1,431,110.61v358.2A38.23,38.23,0,0,1,392.81,507Z"/><path d="M87,284.25a6,6,0,0,1-6-6v-9a6,6,0,0,1,12,0v9A6,6,0,0,1,87,284.25Z"/><path d="M362.63,476.82H149.37a38.24,38.24,0,0,1-38.19-38.2V140.79a38.23,38.23,0,0,1,38.19-38.19h23.39a6,6,0,0,1,5.81,4.5,18.14,18.14,0,0,0,17.58,13.61h119.7a18.15,18.15,0,0,0,17.58-13.61,6,6,0,0,1,5.81-4.5h23.39a38.23,38.23,0,0,1,38.19,38.19V438.62A38.24,38.24,0,0,1,362.63,476.82ZM149.37,114.6a26.22,26.22,0,0,0-26.19,26.19V438.62a26.23,26.23,0,0,0,26.19,26.2H362.63a26.23,26.23,0,0,0,26.19-26.2V140.79a26.22,26.22,0,0,0-26.19-26.19H343.5a30.15,30.15,0,0,1-27.65,18.11H196.15A30.18,30.18,0,0,1,168.5,114.6Z"/><path d="M315.85,132.71H196.15a30.15,30.15,0,1,1,0-60.3h7.16a54.28,54.28,0,1,1,105.38,0h7.16a30.15,30.15,0,0,1,0,60.3Zm-119.7-48.3a18.15,18.15,0,0,0,0,36.3h119.7a18.15,18.15,0,0,0,0-36.3h-15.5A6,6,0,0,1,294.84,76a42.29,42.29,0,1,0-77.68,0,6,6,0,0,1-5.51,8.38Z"/><path d="M352.62,343.72H191.53a6,6,0,1,1,0-12H352.62a6,6,0,0,1,0,12Z"/><path d="M159.37,343.72a5.81,5.81,0,0,1-1.17-.12,6.29,6.29,0,0,1-1.12-.34,6.15,6.15,0,0,1-1-.56,6.53,6.53,0,0,1-.91-.74,6,6,0,0,1-.75-.92,6,6,0,0,1-.89-2.15,5.81,5.81,0,0,1,0-2.35,6.29,6.29,0,0,1,.34-1.12,6.89,6.89,0,0,1,.55-1,6.47,6.47,0,0,1,.75-.91,5.89,5.89,0,0,1,.91-.74,6.15,6.15,0,0,1,1-.56,6.29,6.29,0,0,1,1.12-.34,6.19,6.19,0,0,1,2.35,0,6.29,6.29,0,0,1,1.12.34,5.7,5.7,0,0,1,1,.56,6,6,0,0,1,.92.74,7.17,7.17,0,0,1,.74.91,6.09,6.09,0,0,1,.55,1,6.32,6.32,0,0,1,.35,1.12,6.64,6.64,0,0,1,.11,1.18,6,6,0,0,1-6,6Z"/><path d="M352.62,393.72H191.53a6,6,0,1,1,0-12H352.62a6,6,0,0,1,0,12Z"/><path d="M159.37,393.71a6.62,6.62,0,0,1-1.17-.11,6.32,6.32,0,0,1-1.12-.35,6.09,6.09,0,0,1-1-.55,5.93,5.93,0,0,1-1.66-1.65,6.89,6.89,0,0,1-.55-1,6.29,6.29,0,0,1-.34-1.12,5.91,5.91,0,0,1-.12-1.18,5.81,5.81,0,0,1,.12-1.17,6.29,6.29,0,0,1,.34-1.12,6.89,6.89,0,0,1,.55-1,6.47,6.47,0,0,1,.75-.91,5.89,5.89,0,0,1,.91-.74,6.15,6.15,0,0,1,1-.56,6.29,6.29,0,0,1,1.12-.34,6.05,6.05,0,0,1,3.47.34,5.7,5.7,0,0,1,1,.56,6,6,0,0,1,.92.74,7.17,7.17,0,0,1,.74.91,6.09,6.09,0,0,1,.55,1,6.32,6.32,0,0,1,.35,1.12,6.62,6.62,0,0,1,.11,1.17,6.73,6.73,0,0,1-.11,1.18,6.32,6.32,0,0,1-.35,1.12,6.09,6.09,0,0,1-.55,1,7.17,7.17,0,0,1-.74.91A6.09,6.09,0,0,1,159.37,393.71Z"/><path d="M352.62,443.72H191.53a6,6,0,1,1,0-12H352.62a6,6,0,0,1,0,12Z"/><path d="M159.37,443.71a6.62,6.62,0,0,1-1.17-.11,6.32,6.32,0,0,1-1.12-.35,6.09,6.09,0,0,1-1-.55,6.53,6.53,0,0,1-.91-.74,6,6,0,0,1,0-8.49,5.89,5.89,0,0,1,.91-.74,6.15,6.15,0,0,1,1-.56,6.29,6.29,0,0,1,1.12-.34,6.19,6.19,0,0,1,2.35,0,6.29,6.29,0,0,1,1.12.34,5.7,5.7,0,0,1,1,.56,6,6,0,0,1,.92.74,6,6,0,0,1,0,8.49,6.62,6.62,0,0,1-.92.74,5.65,5.65,0,0,1-1,.55,6.32,6.32,0,0,1-1.12.35A6.64,6.64,0,0,1,159.37,443.71Z"/><path d="M352.62,293.72H191.53a6,6,0,1,1,0-12H352.62a6,6,0,0,1,0,12Z"/><path d="M159.37,293.71a6,6,0,0,1-4.24-10.24,5.36,5.36,0,0,1,.91-.74,6.15,6.15,0,0,1,1-.56,6.29,6.29,0,0,1,1.12-.34,6.05,6.05,0,0,1,3.47.34,5.7,5.7,0,0,1,1,.56,5.43,5.43,0,0,1,.92.74,6.08,6.08,0,0,1,1.75,4.24,6.64,6.64,0,0,1-.11,1.18,6.32,6.32,0,0,1-.35,1.12,6.09,6.09,0,0,1-.55,1,7.17,7.17,0,0,1-.74.91A6.09,6.09,0,0,1,159.37,293.71Z"/><path d="M274.67,242.55h-7.84a9.44,9.44,0,0,1-9.44-9.44V180.24a9.44,9.44,0,0,1,9.44-9.44h7.84a30.69,30.69,0,0,1,30.65,30.65V211.9A30.69,30.69,0,0,1,274.67,242.55Zm-5.28-12h5.28a18.68,18.68,0,0,0,18.65-18.65V201.45a18.67,18.67,0,0,0-18.65-18.65h-5.28Z"/><path d="M211.31,242.55c-17.85,0-32.38-16.09-32.38-35.88s14.53-35.87,32.38-35.87,32.38,16.09,32.38,35.87S229.16,242.55,211.31,242.55Zm0-59.75c-11.24,0-20.38,10.71-20.38,23.87s9.14,23.88,20.38,23.88,20.38-10.71,20.38-23.88S222.55,182.8,211.31,182.8Z"/><path d="M342.38,242.55c-17.86,0-32.38-16.09-32.38-35.88s14.52-35.87,32.38-35.87,32.37,16.09,32.37,35.87S360.23,242.55,342.38,242.55Zm0-59.75c-11.24,0-20.38,10.71-20.38,23.87s9.14,23.88,20.38,23.88,20.37-10.71,20.37-23.88S353.61,182.8,342.38,182.8Z"/><path d="M160.1,242.55a6,6,0,0,1-6-6V178.33a6,6,0,0,1,12,0v58.22A6,6,0,0,1,160.1,242.55Z"/><path d="M177,182.8H143.24a6,6,0,0,1,0-12H177a6,6,0,0,1,0,12Z"/></g></svg>